<svg xmlns="http://www.w3.org/2000/svg" viewBox="0 0 1200 630" width="1200" height="630">
  <defs>
    <linearGradient id="sky" x1="0" y1="0" x2="0" y2="1">
      <stop offset="0" stop-color="#08132a"/>
      <stop offset="0.5" stop-color="#122c50"/>
      <stop offset="1" stop-color="#2b6a8f"/>
    </linearGradient>
    <linearGradient id="aur" x1="0" y1="0" x2="1" y2="0">
      <stop offset="0" stop-color="#5ce1a6" stop-opacity="0"/>
      <stop offset="0.5" stop-color="#5ce1a6" stop-opacity="0.35"/>
      <stop offset="1" stop-color="#9b8cff" stop-opacity="0"/>
    </linearGradient>
    <linearGradient id="ice" x1="0" y1="0" x2="0" y2="1">
      <stop offset="0" stop-color="#f4fbff"/>
      <stop offset="1" stop-color="#bcdff2"/>
    </linearGradient>
  </defs>

  <rect width="1200" height="630" fill="url(#sky)"/>
  <path d="M0 150 Q300 90 600 150 T1200 140 L1200 250 Q900 200 600 250 T0 240 Z" fill="url(#aur)"/>

  <g fill="#ffffff" opacity="0.7">
    <circle cx="120" cy="80" r="2"/><circle cx="340" cy="50" r="1.6"/><circle cx="640" cy="90" r="2.2"/>
    <circle cx="900" cy="60" r="1.8"/><circle cx="1080" cy="110" r="2"/><circle cx="480" cy="120" r="1.4"/>
  </g>

  <rect y="470" width="1200" height="160" fill="#0a2340"/>
  <path d="M0 470 Q150 460 300 470 T600 470 T900 470 T1200 470 L1200 480 L0 480Z" fill="#134066"/>

  <g>
    <path d="M80 430 h240 l-16 30 h-208 Z" fill="url(#ice)"/>
    <path d="M420 400 h200 l-14 30 h-172 Z" fill="url(#ice)"/>
    <path d="M720 440 h180 l-14 28 h-152 Z" fill="url(#ice)"/>
    <path d="M980 405 h200 l-14 30 h-172 Z" fill="url(#ice)"/>
  </g>

  <g transform="translate(492 300) scale(2.2)">
    <ellipse cx="0" cy="20" rx="17" ry="19" fill="#3f4a5c"/>
    <ellipse cx="0" cy="22" rx="11" ry="14" fill="#f6fbff"/>
    <ellipse cx="0" cy="0" rx="13" ry="11" fill="#3f4a5c"/>
    <ellipse cx="-6" cy="-1" rx="3.4" ry="3.8" fill="#fff"/>
    <ellipse cx="5" cy="-1" rx="3.4" ry="3.8" fill="#fff"/>
    <circle cx="-5.2" cy="-0.6" r="1.7" fill="#0e1723"/>
    <circle cx="5.4" cy="-0.6" r="1.7" fill="#0e1723"/>
    <path d="M0 3.5 7 6 0 8.5Z" fill="#ff9c3f"/>
    <ellipse cx="-7" cy="38" rx="5" ry="2.4" fill="#ff9c3f"/>
    <ellipse cx="7" cy="38" rx="5" ry="2.4" fill="#ff9c3f"/>
  </g>

  <text x="600" y="180" text-anchor="middle" font-family="Outfit, system-ui, sans-serif" font-size="96" font-weight="800" fill="#ffffff" letter-spacing="-3">Pengu</text>
  <text x="600" y="228" text-anchor="middle" font-family="Outfit, system-ui, sans-serif" font-size="26" font-weight="600" fill="#8fc4e2" letter-spacing="6">ANTARKTİKA'DAN KAÇIŞ</text>
</svg>
